# xmcd
#
# Track frame offsets:
#	150
#	14632
#	27357
#	41015
#	54937
#	68035
#	82063
#	96322
#	106827
#	118373
#	131964
#	145579
#	156363
#	170889
#	186387
#	199356
#	212451
#	228447
#
# Disc length: 3197 seconds
#
# Revision: 1
# Processed by: cddbd v1.4PL0 Copyright (c) Steve Scherf et al.
# Submitted via: audiograbber 1.81.03
#
DISCID=100c7b12
DTITLE=Various Artist - County Jail Blues - CD 3
DYEAR=2001
DGENRE=Blues
TTITLE0=Jay Mcshann's Kansas City Stompers - When I've Been Drinking
TTITLE1=Jesse Price - Baby Let's Be Friends
TTITLE2=John Lee Hooker - Decoration Day Blues Lord Taketh My Baby Away
TTITLE3=Charles Brown - Black Nights
TTITLE4=Brownie McGhee and Sonny Terry - Walk On
TTITLE5=T Bone Walker - Come Back To Me Baby
TTITLE6=John Lee Hooker - Don't You Remember Me (Can I Say Hello)
TTITLE7=Johnny Moore's Three Blazers - Blazers Boogie
TTITLE8=King Cole Trio - Bring Another Drink
TTITLE9=Cootie Williams and His Orchestra - Stingy Blues
TTITLE10=Amos Milburn - Two Years Of Torture
TTITLE11=Charles Brown - Once There Lived A Fool
TTITLE12=Ella Mae Morse - Cow Cow Boogie
TTITLE13=Johnny Moore's Three Blazers - Baby Don't You Cry
TTITLE14=John Lee Hooker - Johnny Lee's Original Boogie
TTITLE15=Nellie Lutcher - Fine Brown Frame
TTITLE16=Lowell Fulson - Double Trouble Blues
TTITLE17=John Lee Hooker - Boom Boom
EXTD=
EXTT0=
EXTT1=
EXTT2=
EXTT3=
EXTT4=
EXTT5=
EXTT6=
EXTT7=
EXTT8=
EXTT9=
EXTT10=
EXTT11=
EXTT12=
EXTT13=
EXTT14=
EXTT15=
EXTT16=
EXTT17=
PLAYORDER=
